<svg width="20" height="20" viewBox="0 0 20 20" fill="none" xmlns="http://www.w3.org/2000/svg">
<path d="M4.77259 16.4419C5.58067 16.7048 7.36396 16.8807 10.0005 16.8807C12.637 16.8807 13.9835 16.7852 15.0333 16.4419C16.0831 16.0985 16.5597 15.307 16.2289 14.4584C15.6811 13.0532 14.1683 11.3846 9.94605 11.3846C5.72384 11.3846 4.3171 13.0623 3.76931 14.4675C3.43852 15.3161 3.96452 16.179 4.77259 16.4419Z" fill="#191919"/>
<path d="M9.94695 10.4177C11.9624 10.4177 13.5962 8.78387 13.5962 6.76842C13.5962 4.75298 11.9624 3.11914 9.94695 3.11914C7.9315 3.11914 6.29767 4.75298 6.29767 6.76842C6.29767 8.78387 7.9315 10.4177 9.94695 10.4177Z" fill="#191919"/>
</svg>
