<svg width="44" height="14" viewBox="0 0 44 14" fill="none" xmlns="http://www.w3.org/2000/svg">
<g clip-path="url(#clip0_94_1391)">
<path d="M6.83203 5.30994L3.88281 8.99548L7.2998 13.0824L6.11621 13.9965L2.08496 9.07947L5.63184 4.4447L6.83203 5.30994ZM25.0645 5.30994L22.1318 8.99548L25.5459 13.0824L24.3652 13.9965L20.3311 9.07947L23.8652 4.4447L25.0645 5.30994ZM39.9004 4.51794C45.3455 4.19436 45.3878 14.2933 39.9004 13.9535C34.419 14.2938 34.4613 4.21332 39.9004 4.51794ZM9.25586 5.31287C17.0324 2.1204 15.3392 8.83946 15.5049 13.766H14.3701L14.1875 12.7709C12.3765 14.446 8.55394 14.4331 8.6543 11.3256C8.57653 8.4092 11.7787 8.4077 14.0381 8.49841C14.3855 5.36176 11.8344 5.43605 9.70508 6.39197L9.25586 5.31287ZM27.4902 5.31287C29.9936 3.86119 33.992 4.19544 33.7354 7.95154V13.766H32.6006L32.415 12.7709C30.6204 14.4464 26.7848 14.4336 26.8887 11.3256C26.8108 8.40885 30.0091 8.40866 32.2686 8.49939C32.6163 5.36224 30.0679 5.43595 27.9385 6.39197L27.4902 5.31287ZM1.53125 13.7621H0V0.924194L1.53125 0.599976V13.7621ZM19.7646 13.7621H18.2305V0.924194L19.7617 0.599976L19.7646 13.7621ZM39.9004 5.74646C36.526 5.59122 36.4935 12.8935 39.9004 12.722C43.333 12.9159 43.3005 5.59153 39.9004 5.75623V5.74646ZM32.2686 9.53162C31.368 9.54779 29.502 9.40556 28.9102 9.94666C27.9382 10.6792 28.2246 12.8707 29.7656 12.6859V12.6888C30.6946 12.6457 31.5797 12.2815 32.2686 11.6586V9.53162ZM14.0371 9.53064C13.1331 9.54679 11.2664 9.4045 10.6748 9.94568C9.70655 10.6784 9.98988 12.8691 11.5303 12.6849V12.6879C12.4603 12.6442 13.3466 12.2793 14.0371 11.6566V9.53064Z" fill="#191919"/>
</g>
<defs>
<clipPath id="clip0_94_1391">
<rect width="44" height="14" fill="white"/>
</clipPath>
</defs>
</svg>
